<svg xmlns="http://www.w3.org/2000/svg" xmlns:xlink="http://www.w3.org/1999/xlink" width="23" height="20.154" viewBox="0 0 23 20.154">
  <defs>
    <linearGradient id="linear-gradient" x1="0.5" x2="0.5" y2="1" gradientUnits="objectBoundingBox">
      <stop offset="0" stop-color="#8e3ddf"/>
      <stop offset="1" stop-color="#f94f4f"/>
    </linearGradient>
  </defs>
  <g id="coin-stack" transform="translate(0 -22.379)">
    <g id="Group_1970" data-name="Group 1970" transform="translate(0 22.379)">
      <path id="Path_1562" data-name="Path 1562" d="M6.683,118.635a14.523,14.523,0,0,0,1.862-.118v-6.39a14.533,14.533,0,0,0-1.862-.118C2.993,112.009,0,113.347,0,115v.648C0,117.3,2.993,118.635,6.683,118.635Z" transform="translate(-0.001 -106.947)" fill="url(#linear-gradient)"/>
      <path id="Path_1563" data-name="Path 1563" d="M6.683,217.423a14.548,14.548,0,0,0,1.862-.118v-1.873a14.534,14.534,0,0,1-1.862.118c-3.221,0-5.91-1.02-6.542-2.377a1.441,1.441,0,0,0-.141.612v.648C0,216.085,2.993,217.423,6.683,217.423Z" transform="translate(-0.001 -202.398)" fill="url(#linear-gradient)"/>
      <path id="Path_1564" data-name="Path 1564" d="M8.545,274.662v-.146a14.523,14.523,0,0,1-1.862.118c-3.221,0-5.91-1.02-6.542-2.377A1.441,1.441,0,0,0,0,272.87v.648c0,1.651,2.992,2.989,6.682,2.989a14.384,14.384,0,0,0,2.112-.152,2.331,2.331,0,0,1-.249-1.045Z" transform="translate(0 -258.145)" fill="url(#linear-gradient)"/>
      <path id="Path_1565" data-name="Path 1565" d="M174.921,22.379c-3.691,0-6.682,1.338-6.682,2.989v.648c0,1.651,2.992,2.989,6.682,2.989s6.682-1.338,6.682-2.989v-.648C181.6,23.717,178.612,22.379,174.921,22.379Z" transform="translate(-158.604 -22.379)" fill="url(#linear-gradient)"/>
      <path id="Path_1566" data-name="Path 1566" d="M174.921,125.921c-3.221,0-5.91-1.02-6.542-2.377a1.44,1.44,0,0,0-.141.612v.648c0,1.651,2.992,2.989,6.682,2.989s6.682-1.338,6.682-2.989v-.648a1.44,1.44,0,0,0-.141-.612C180.832,124.9,178.143,125.921,174.921,125.921Z" transform="translate(-158.604 -117.83)" fill="url(#linear-gradient)"/>
      <path id="Path_1567" data-name="Path 1567" d="M174.921,185c-3.221,0-5.91-1.02-6.542-2.377a1.44,1.44,0,0,0-.141.612v.648c0,1.651,2.992,2.989,6.682,2.989s6.682-1.338,6.682-2.989v-.648a1.44,1.44,0,0,0-.141-.612C180.832,183.985,178.143,185,174.921,185Z" transform="translate(-158.604 -173.578)" fill="url(#linear-gradient)"/>
      <path id="Path_1568" data-name="Path 1568" d="M174.921,247.278c-3.221,0-5.91-1.02-6.542-2.377a1.441,1.441,0,0,0-.141.612v.648c0,1.651,2.992,2.989,6.682,2.989s6.682-1.338,6.682-2.989v-.648a1.44,1.44,0,0,0-.141-.612C180.832,246.258,178.143,247.278,174.921,247.278Z" transform="translate(-158.604 -232.334)" fill="url(#linear-gradient)"/>
      <path id="Path_1569" data-name="Path 1569" d="M174.921,306.361c-3.221,0-5.91-1.02-6.542-2.377a1.441,1.441,0,0,0-.141.612v.648c0,1.651,2.992,2.989,6.682,2.989s6.682-1.338,6.682-2.989V304.6a1.44,1.44,0,0,0-.141-.612C180.832,305.341,178.143,306.361,174.921,306.361Z" transform="translate(-158.604 -288.08)" fill="url(#linear-gradient)"/>
    </g>
  </g>
</svg>
