<svg xmlns="http://www.w3.org/2000/svg" xmlns:xlink="http://www.w3.org/1999/xlink" width="19.114" height="21.105" viewBox="0 0 19.114 21.105">
  <defs>
    <style>
      .cls-1 {
        fill: url(#linear-gradient);
      }
    </style>
    <linearGradient id="linear-gradient" x1="0.5" x2="0.5" y2="1" gradientUnits="objectBoundingBox">
      <stop offset="0" stop-color="#f94f4f"/>
      <stop offset="1" stop-color="#8e3ddf"/>
    </linearGradient>
  </defs>
  <path id="_ionicons_svg_md-share" class="cls-1" d="M79.919,58.954a2.9,2.9,0,0,0-2.077.8l-7.613-4.4a2.639,2.639,0,0,0,0-1.485l7.507-4.348a3.186,3.186,0,1,0-1.012-2.333,3.544,3.544,0,0,0,.107.743l-7.507,4.348a3.2,3.2,0,0,0-2.183-.848A3.152,3.152,0,0,0,64,54.606a3.205,3.205,0,0,0,5.377,2.333l7.56,4.4a2.66,2.66,0,0,0-.107.689,3.088,3.088,0,1,0,3.088-3.075Z" transform="translate(-64 -44)"/>
</svg>
