<svg id="dollar-coin-money" xmlns="http://www.w3.org/2000/svg" xmlns:xlink="http://www.w3.org/1999/xlink" width="20.154" height="20.154" viewBox="0 0 20.154 20.154">
  <defs>
    <linearGradient id="linear-gradient" x1="0.5" x2="0.5" y2="1" gradientUnits="objectBoundingBox">
      <stop offset="0" stop-color="#8e3ddf"/>
      <stop offset="1" stop-color="#f94f4f"/>
    </linearGradient>
  </defs>
  <path id="Path_1561" data-name="Path 1561" d="M10.077,0A10.077,10.077,0,1,0,20.154,10.077,10.077,10.077,0,0,0,10.077,0Zm2.748,13.967a3.2,3.2,0,0,1-2.148.982v1.426H9.484V14.956a3.125,3.125,0,0,1-2.9-2.721l1.845-.481a1.6,1.6,0,0,0,1.7,1.559,1.315,1.315,0,0,0,.993-.333,1.127,1.127,0,0,0,.317-.806.888.888,0,0,0-.317-.741,5.736,5.736,0,0,0-1.412-.64,8.31,8.31,0,0,1-1.538-.675,2.539,2.539,0,0,1-.9-.932,2.766,2.766,0,0,1-.346-1.4A3.1,3.1,0,0,1,7.543,5.9,2.759,2.759,0,0,1,9.484,4.88v-1.1h1.193v1.1a2.886,2.886,0,0,1,2.589,2.263l-1.643.674Q11.141,6.43,10.136,6.43a1.085,1.085,0,0,0-.811.31,1.03,1.03,0,0,0-.306.752.842.842,0,0,0,.3.691,5.071,5.071,0,0,0,1.262.6,11.2,11.2,0,0,1,1.667.733,2.619,2.619,0,0,1,.966.953,2.742,2.742,0,0,1,.36,1.422A3.008,3.008,0,0,1,12.825,13.967Z" fill="url(#linear-gradient)"/>
</svg>
