<svg xmlns="http://www.w3.org/2000/svg" width="15.911" height="15.239" viewBox="0 0 15.911 15.239">
  <g id="Group_1969" data-name="Group 1969" transform="translate(0)">
    <circle id="Ellipse_47" data-name="Ellipse 47" cx="0.922" cy="0.922" r="0.922" transform="translate(10.638)" fill="#fff"/>
    <circle id="Ellipse_48" data-name="Ellipse 48" cx="0.78" cy="0.78" r="0.78" transform="translate(11.036 2.571)" fill="#fff"/>
    <circle id="Ellipse_49" data-name="Ellipse 49" cx="0.66" cy="0.66" r="0.66" transform="translate(10.915 4.737)" fill="#fff"/>
    <circle id="Ellipse_50" data-name="Ellipse 50" cx="0.564" cy="0.564" r="0.564" transform="translate(10.408 6.49)" fill="#fff"/>
    <circle id="Ellipse_51" data-name="Ellipse 51" cx="0.484" cy="0.484" r="0.484" transform="translate(9.675 7.82)" fill="#fff"/>
    <circle id="Ellipse_52" data-name="Ellipse 52" cx="0.416" cy="0.416" r="0.416" transform="translate(8.835 8.776)" fill="#fff"/>
    <circle id="Ellipse_53" data-name="Ellipse 53" cx="0.783" cy="0.783" r="0.783" transform="translate(13.092 2.854)" fill="#fff"/>
    <circle id="Ellipse_54" data-name="Ellipse 54" cx="0.663" cy="0.663" r="0.663" transform="translate(12.954 5.034)" fill="#fff"/>
    <circle id="Ellipse_55" data-name="Ellipse 55" cx="0.561" cy="0.561" r="0.561" transform="translate(12.46 6.783)" fill="#fff"/>
    <circle id="Ellipse_56" data-name="Ellipse 56" cx="0.479" cy="0.479" r="0.479" transform="translate(11.722 8.119)" fill="#fff"/>
    <circle id="Ellipse_57" data-name="Ellipse 57" cx="0.412" cy="0.412" r="0.412" transform="translate(10.874 9.064)" fill="#fff"/>
    <circle id="Ellipse_58" data-name="Ellipse 58" cx="0.353" cy="0.353" r="0.353" transform="translate(10.009 9.681)" fill="#fff"/>
    <circle id="Ellipse_59" data-name="Ellipse 59" cx="0.667" cy="0.667" r="0.667" transform="translate(14.577 5.633)" fill="#fff"/>
    <circle id="Ellipse_60" data-name="Ellipse 60" cx="0.568" cy="0.568" r="0.568" transform="translate(14.071 7.384)" fill="#fff"/>
    <circle id="Ellipse_61" data-name="Ellipse 61" cx="0.49" cy="0.49" r="0.49" transform="translate(13.344 8.714)" fill="#fff"/>
    <circle id="Ellipse_62" data-name="Ellipse 62" cx="0.426" cy="0.426" r="0.426" transform="translate(12.494 9.668)" fill="#fff"/>
    <circle id="Ellipse_63" data-name="Ellipse 63" cx="0.364" cy="0.364" r="0.364" transform="translate(11.632 10.289)" fill="#fff"/>
    <circle id="Ellipse_64" data-name="Ellipse 64" cx="0.309" cy="0.309" r="0.309" transform="translate(10.815 10.636)" fill="#fff"/>
    <circle id="Ellipse_65" data-name="Ellipse 65" cx="0.921" cy="0.921" r="0.921" transform="translate(11.69 12.883)" fill="#fff"/>
    <circle id="Ellipse_66" data-name="Ellipse 66" cx="0.78" cy="0.78" r="0.78" transform="translate(9.598 12.035)" fill="#fff"/>
    <circle id="Ellipse_67" data-name="Ellipse 67" cx="0.66" cy="0.66" r="0.66" transform="translate(8.066 10.924)" fill="#fff"/>
    <circle id="Ellipse_68" data-name="Ellipse 68" cx="0.564" cy="0.564" r="0.564" transform="translate(7.028 9.671)" fill="#fff"/>
    <circle id="Ellipse_69" data-name="Ellipse 69" cx="0.484" cy="0.484" r="0.484" transform="translate(6.429 8.422)" fill="#fff"/>
    <circle id="Ellipse_70" data-name="Ellipse 70" cx="0.416" cy="0.416" r="0.416" transform="translate(6.182 7.26)" fill="#fff"/>
    <circle id="Ellipse_71" data-name="Ellipse 71" cx="0.783" cy="0.783" r="0.783" transform="translate(8.319 13.672)" fill="#fff"/>
    <circle id="Ellipse_72" data-name="Ellipse 72" cx="0.663" cy="0.663" r="0.663" transform="translate(6.782 12.54)" fill="#fff"/>
    <circle id="Ellipse_73" data-name="Ellipse 73" cx="0.561" cy="0.561" r="0.561" transform="translate(5.756 11.303)" fill="#fff"/>
    <circle id="Ellipse_74" data-name="Ellipse 74" cx="0.479" cy="0.479" r="0.479" transform="translate(5.16 10.049)" fill="#fff"/>
    <circle id="Ellipse_75" data-name="Ellipse 75" cx="0.412" cy="0.412" r="0.412" transform="translate(4.924 8.886)" fill="#fff"/>
    <circle id="Ellipse_76" data-name="Ellipse 76" cx="0.353" cy="0.353" r="0.353" transform="translate(4.959 7.865)" fill="#fff"/>
    <circle id="Ellipse_77" data-name="Ellipse 77" cx="0.667" cy="0.667" r="0.667" transform="translate(5.444 13.645)" fill="#fff"/>
    <circle id="Ellipse_78" data-name="Ellipse 78" cx="0.567" cy="0.567" r="0.567" transform="translate(4.415 12.396)" fill="#fff"/>
    <circle id="Ellipse_79" data-name="Ellipse 79" cx="0.49" cy="0.49" r="0.49" transform="translate(3.808 11.15)" fill="#fff"/>
    <circle id="Ellipse_80" data-name="Ellipse 80" cx="0.426" cy="0.426" r="0.426" transform="translate(3.559 9.979)" fill="#fff"/>
    <circle id="Ellipse_81" data-name="Ellipse 81" cx="0.364" cy="0.364" r="0.364" transform="translate(3.598 8.961)" fill="#fff"/>
    <circle id="Ellipse_82" data-name="Ellipse 82" cx="0.309" cy="0.309" r="0.309" transform="translate(3.835 8.115)" fill="#fff"/>
    <circle id="Ellipse_83" data-name="Ellipse 83" cx="0.921" cy="0.921" r="0.921" transform="translate(0 7.356)" fill="#fff"/>
    <circle id="Ellipse_84" data-name="Ellipse 84" cx="0.78" cy="0.78" r="0.78" transform="translate(2.117 6.06)" fill="#fff"/>
    <circle id="Ellipse_85" data-name="Ellipse 85" cx="0.66" cy="0.66" r="0.66" transform="translate(4.131 5.368)" fill="#fff"/>
    <circle id="Ellipse_86" data-name="Ellipse 86" cx="0.564" cy="0.564" r="0.564" transform="translate(5.962 5.159)" fill="#fff"/>
    <circle id="Ellipse_87" data-name="Ellipse 87" cx="0.484" cy="0.484" r="0.484" transform="translate(7.532 5.318)" fill="#fff"/>
    <circle id="Ellipse_88" data-name="Ellipse 88" cx="0.416" cy="0.416" r="0.416" transform="translate(8.822 5.729)" fill="#fff"/>
    <path id="Path_412" data-name="Path 412" d="M453.522,158.386a.783.783,0,1,1-.523.976A.783.783,0,0,1,453.522,158.386Z" transform="translate(-451.632 -154.221)" fill="#fff"/>
    <circle id="Ellipse_89" data-name="Ellipse 89" cx="0.663" cy="0.663" r="0.663" transform="translate(3.367 3.445)" fill="#fff"/>
    <circle id="Ellipse_90" data-name="Ellipse 90" cx="0.561" cy="0.561" r="0.561" transform="translate(5.194 3.242)" fill="#fff"/>
    <circle id="Ellipse_91" data-name="Ellipse 91" cx="0.479" cy="0.479" r="0.479" transform="translate(6.771 3.407)" fill="#fff"/>
    <circle id="Ellipse_92" data-name="Ellipse 92" cx="0.412" cy="0.412" r="0.412" transform="translate(8.057 3.828)" fill="#fff"/>
    <circle id="Ellipse_93" data-name="Ellipse 93" cx="0.353" cy="0.353" r="0.353" transform="translate(9.06 4.408)" fill="#fff"/>
    <circle id="Ellipse_94" data-name="Ellipse 94" cx="0.667" cy="0.667" r="0.667" transform="translate(3.073 1.731)" fill="#fff"/>
    <path id="Path_413" data-name="Path 413" d="M483.99,136.145a.567.567,0,1,1-.525.607A.568.568,0,0,1,483.99,136.145Z" transform="translate(-478.558 -134.613)" fill="#fff"/>
    <circle id="Ellipse_95" data-name="Ellipse 95" cx="0.49" cy="0.49" r="0.49" transform="translate(6.47 1.678)" fill="#fff"/>
    <circle id="Ellipse_96" data-name="Ellipse 96" cx="0.426" cy="0.426" r="0.426" transform="translate(7.762 2.09)" fill="#fff"/>
    <circle id="Ellipse_97" data-name="Ellipse 97" cx="0.364" cy="0.364" r="0.364" transform="translate(8.769 2.674)" fill="#fff"/>
    <path id="Path_414" data-name="Path 414" d="M523.087,151.583a.309.309,0,1,1-.285.33A.309.309,0,0,1,523.087,151.583Z" transform="translate(-513.289 -148.244)" fill="#fff"/>
  </g>
</svg>
