<svg id="accept" xmlns="http://www.w3.org/2000/svg" width="14.913" height="15.566" viewBox="0 0 14.913 15.566">
  <defs>
    <style>
      .cls-1 {
        fill: #fff;
      }
    </style>
  </defs>
  <path id="Path_506" data-name="Path 506" class="cls-1" d="M11.126,7.1h.084q.218,0,.432.028v-5.3A1.839,1.839,0,0,0,9.806,0H1.837A1.839,1.839,0,0,0,0,1.837V12.4a1.839,1.839,0,0,0,1.837,1.837h5.32A4.673,4.673,0,0,1,11.126,7.1ZM6.587,3H9.309a.456.456,0,1,1,0,.912H6.587a.456.456,0,0,1,0-.912Zm0,1.824H9.309a.456.456,0,1,1,0,.912H6.587a.456.456,0,0,1,0-.912ZM5.055,11.238H2.334a.456.456,0,0,1,0-.912H5.055a.456.456,0,1,1,0,.912Zm0-1.855H2.334a.456.456,0,0,1,0-.912H5.055a.456.456,0,1,1,0,.912Zm0-1.824H2.334a.456.456,0,0,1,0-.912H5.055a.456.456,0,0,1,0,.912Zm0-1.824H2.334a.456.456,0,0,1,0-.912H5.055a.456.456,0,1,1,0,.912Zm0-1.824H2.334a.456.456,0,0,1,0-.912H5.055a.456.456,0,0,1,0,.912ZM6.131,7.1a.456.456,0,0,1,.456-.456H7.9a.456.456,0,1,1,0,.912H6.587A.456.456,0,0,1,6.131,7.1Zm0,0" transform="translate(0 0)"/>
  <path id="Path_507" data-name="Path 507" class="cls-1" d="M247.874,263.812a3.763,3.763,0,0,0-2.632-1.132h-.068a3.789,3.789,0,1,0,2.7,1.133Zm-1.082,2.041-1.446,1.8a.456.456,0,0,1-.623.084l-1.079-.781a.456.456,0,0,1,.535-.739l.727.527,1.175-1.464a.456.456,0,1,1,.711.571Zm0,0" transform="translate(-234.048 -254.693)"/>
</svg>
