<svg id="Group_1955" data-name="Group 1955" xmlns="http://www.w3.org/2000/svg" width="16.016" height="16.169" viewBox="0 0 16.016 16.169">
  <defs>
    <style>
      .cls-1 {
        fill: #fff;
      }
    </style>
  </defs>
  <rect id="Rectangle_1780" data-name="Rectangle 1780" class="cls-1" width="0.641" height="0.647"/>
  <rect id="Rectangle_1781" data-name="Rectangle 1781" class="cls-1" width="0.641" height="0.647" transform="translate(0 0.647)"/>
  <rect id="Rectangle_1782" data-name="Rectangle 1782" class="cls-1" width="0.641" height="0.647" transform="translate(0 1.294)"/>
  <rect id="Rectangle_1783" data-name="Rectangle 1783" class="cls-1" width="0.641" height="0.647" transform="translate(0 1.94)"/>
  <rect id="Rectangle_1784" data-name="Rectangle 1784" class="cls-1" width="0.641" height="0.647" transform="translate(0 2.587)"/>
  <rect id="Rectangle_1785" data-name="Rectangle 1785" class="cls-1" width="0.641" height="0.647" transform="translate(0 3.234)"/>
  <rect id="Rectangle_1786" data-name="Rectangle 1786" class="cls-1" width="0.641" height="0.647" transform="translate(0 3.881)"/>
  <rect id="Rectangle_1787" data-name="Rectangle 1787" class="cls-1" width="0.641" height="0.647" transform="translate(0 5.174)"/>
  <rect id="Rectangle_1788" data-name="Rectangle 1788" class="cls-1" width="0.641" height="0.647" transform="translate(0 5.821)"/>
  <rect id="Rectangle_1789" data-name="Rectangle 1789" class="cls-1" width="0.641" height="0.647" transform="translate(0 6.468)"/>
  <rect id="Rectangle_1790" data-name="Rectangle 1790" class="cls-1" width="0.641" height="0.647" transform="translate(0 11.642)"/>
  <rect id="Rectangle_1791" data-name="Rectangle 1791" class="cls-1" width="0.641" height="0.647" transform="translate(0 12.289)"/>
  <rect id="Rectangle_1792" data-name="Rectangle 1792" class="cls-1" width="0.641" height="0.647" transform="translate(0 12.935)"/>
  <rect id="Rectangle_1793" data-name="Rectangle 1793" class="cls-1" width="0.641" height="0.647" transform="translate(0 13.582)"/>
  <rect id="Rectangle_1794" data-name="Rectangle 1794" class="cls-1" width="0.641" height="0.647" transform="translate(0 14.229)"/>
  <rect id="Rectangle_1795" data-name="Rectangle 1795" class="cls-1" width="0.641" height="0.647" transform="translate(0 14.876)"/>
  <rect id="Rectangle_1796" data-name="Rectangle 1796" class="cls-1" width="0.641" height="0.647" transform="translate(0 15.522)"/>
  <rect id="Rectangle_1797" data-name="Rectangle 1797" class="cls-1" width="0.641" height="0.647" transform="translate(0.641)"/>
  <rect id="Rectangle_1798" data-name="Rectangle 1798" class="cls-1" width="0.641" height="0.647" transform="translate(0.641 3.881)"/>
  <rect id="Rectangle_1799" data-name="Rectangle 1799" class="cls-1" width="0.641" height="0.647" transform="translate(0.641 5.174)"/>
  <rect id="Rectangle_1800" data-name="Rectangle 1800" class="cls-1" width="0.641" height="0.647" transform="translate(0.641 7.114)"/>
  <rect id="Rectangle_1801" data-name="Rectangle 1801" class="cls-1" width="0.641" height="0.647" transform="translate(0.641 8.408)"/>
  <rect id="Rectangle_1802" data-name="Rectangle 1802" class="cls-1" width="0.641" height="0.647" transform="translate(0.641 9.701)"/>
  <rect id="Rectangle_1803" data-name="Rectangle 1803" class="cls-1" width="0.641" height="0.647" transform="translate(0.641 10.348)"/>
  <rect id="Rectangle_1804" data-name="Rectangle 1804" class="cls-1" width="0.641" height="0.647" transform="translate(0.641 11.642)"/>
  <rect id="Rectangle_1805" data-name="Rectangle 1805" class="cls-1" width="0.641" height="0.647" transform="translate(0.641 15.522)"/>
  <rect id="Rectangle_1806" data-name="Rectangle 1806" class="cls-1" width="0.641" height="0.647" transform="translate(1.281)"/>
  <rect id="Rectangle_1807" data-name="Rectangle 1807" class="cls-1" width="0.641" height="0.647" transform="translate(1.281 1.294)"/>
  <rect id="Rectangle_1808" data-name="Rectangle 1808" class="cls-1" width="0.641" height="0.647" transform="translate(1.281 1.94)"/>
  <rect id="Rectangle_1809" data-name="Rectangle 1809" class="cls-1" width="0.641" height="0.647" transform="translate(1.281 2.587)"/>
  <rect id="Rectangle_1810" data-name="Rectangle 1810" class="cls-1" width="0.641" height="0.647" transform="translate(1.281 3.881)"/>
  <rect id="Rectangle_1811" data-name="Rectangle 1811" class="cls-1" width="0.641" height="0.647" transform="translate(1.281 5.821)"/>
  <rect id="Rectangle_1812" data-name="Rectangle 1812" class="cls-1" width="0.641" height="0.647" transform="translate(1.281 7.761)"/>
  <rect id="Rectangle_1813" data-name="Rectangle 1813" class="cls-1" width="0.641" height="0.647" transform="translate(1.281 10.348)"/>
  <rect id="Rectangle_1814" data-name="Rectangle 1814" class="cls-1" width="0.641" height="0.647" transform="translate(1.281 11.642)"/>
  <rect id="Rectangle_1815" data-name="Rectangle 1815" class="cls-1" width="0.641" height="0.647" transform="translate(1.281 12.935)"/>
  <rect id="Rectangle_1816" data-name="Rectangle 1816" class="cls-1" width="0.641" height="0.647" transform="translate(1.281 13.582)"/>
  <rect id="Rectangle_1817" data-name="Rectangle 1817" class="cls-1" width="0.641" height="0.647" transform="translate(1.281 14.229)"/>
  <rect id="Rectangle_1818" data-name="Rectangle 1818" class="cls-1" width="0.641" height="0.647" transform="translate(1.281 15.522)"/>
  <rect id="Rectangle_1819" data-name="Rectangle 1819" class="cls-1" width="0.641" height="0.647" transform="translate(1.922)"/>
  <rect id="Rectangle_1820" data-name="Rectangle 1820" class="cls-1" width="0.641" height="0.647" transform="translate(1.922 1.294)"/>
  <rect id="Rectangle_1821" data-name="Rectangle 1821" class="cls-1" width="0.641" height="0.647" transform="translate(1.922 1.94)"/>
  <rect id="Rectangle_1822" data-name="Rectangle 1822" class="cls-1" width="0.641" height="0.647" transform="translate(1.922 2.587)"/>
  <rect id="Rectangle_1823" data-name="Rectangle 1823" class="cls-1" width="0.641" height="0.647" transform="translate(1.922 3.881)"/>
  <rect id="Rectangle_1824" data-name="Rectangle 1824" class="cls-1" width="0.641" height="0.647" transform="translate(1.922 5.174)"/>
  <rect id="Rectangle_1825" data-name="Rectangle 1825" class="cls-1" width="0.641" height="0.647" transform="translate(1.922 5.821)"/>
  <rect id="Rectangle_1826" data-name="Rectangle 1826" class="cls-1" width="0.641" height="0.647" transform="translate(1.922 9.055)"/>
  <rect id="Rectangle_1827" data-name="Rectangle 1827" class="cls-1" width="0.641" height="0.647" transform="translate(1.922 10.348)"/>
  <rect id="Rectangle_1828" data-name="Rectangle 1828" class="cls-1" width="0.641" height="0.647" transform="translate(1.922 11.642)"/>
  <rect id="Rectangle_1829" data-name="Rectangle 1829" class="cls-1" width="0.641" height="0.647" transform="translate(1.922 12.935)"/>
  <rect id="Rectangle_1830" data-name="Rectangle 1830" class="cls-1" width="0.641" height="0.647" transform="translate(1.922 13.582)"/>
  <rect id="Rectangle_1831" data-name="Rectangle 1831" class="cls-1" width="0.641" height="0.647" transform="translate(1.922 14.229)"/>
  <rect id="Rectangle_1832" data-name="Rectangle 1832" class="cls-1" width="0.641" height="0.647" transform="translate(1.922 15.522)"/>
  <rect id="Rectangle_1833" data-name="Rectangle 1833" class="cls-1" width="0.641" height="0.647" transform="translate(2.563)"/>
  <rect id="Rectangle_1834" data-name="Rectangle 1834" class="cls-1" width="0.641" height="0.647" transform="translate(2.563 1.294)"/>
  <rect id="Rectangle_1835" data-name="Rectangle 1835" class="cls-1" width="0.641" height="0.647" transform="translate(2.563 1.94)"/>
  <rect id="Rectangle_1836" data-name="Rectangle 1836" class="cls-1" width="0.641" height="0.647" transform="translate(2.563 2.587)"/>
  <rect id="Rectangle_1837" data-name="Rectangle 1837" class="cls-1" width="0.641" height="0.647" transform="translate(2.563 3.881)"/>
  <rect id="Rectangle_1838" data-name="Rectangle 1838" class="cls-1" width="0.641" height="0.647" transform="translate(2.563 5.174)"/>
  <rect id="Rectangle_1839" data-name="Rectangle 1839" class="cls-1" width="0.641" height="0.647" transform="translate(2.563 6.468)"/>
  <rect id="Rectangle_1841" data-name="Rectangle 1841" class="cls-1" width="0.641" height="0.647" transform="translate(2.563 7.761)"/>
  <rect id="Rectangle_1842" data-name="Rectangle 1842" class="cls-1" width="0.641" height="0.647" transform="translate(2.563 8.408)"/>
  <rect id="Rectangle_1843" data-name="Rectangle 1843" class="cls-1" width="0.641" height="0.647" transform="translate(2.563 9.055)"/>
  <rect id="Rectangle_1844" data-name="Rectangle 1844" class="cls-1" width="0.641" height="0.647" transform="translate(2.563 10.348)"/>
  <rect id="Rectangle_1845" data-name="Rectangle 1845" class="cls-1" width="0.641" height="0.647" transform="translate(2.563 11.642)"/>
  <rect id="Rectangle_1846" data-name="Rectangle 1846" class="cls-1" width="0.641" height="0.647" transform="translate(2.563 12.935)"/>
  <rect id="Rectangle_1847" data-name="Rectangle 1847" class="cls-1" width="0.641" height="0.647" transform="translate(2.563 13.582)"/>
  <rect id="Rectangle_1848" data-name="Rectangle 1848" class="cls-1" width="0.641" height="0.647" transform="translate(2.563 14.229)"/>
  <rect id="Rectangle_1849" data-name="Rectangle 1849" class="cls-1" width="0.641" height="0.647" transform="translate(2.563 15.522)"/>
  <rect id="Rectangle_1850" data-name="Rectangle 1850" class="cls-1" width="0.641" height="0.647" transform="translate(3.203)"/>
  <rect id="Rectangle_1851" data-name="Rectangle 1851" class="cls-1" width="0.641" height="0.647" transform="translate(3.203 3.881)"/>
  <rect id="Rectangle_1852" data-name="Rectangle 1852" class="cls-1" width="0.641" height="0.647" transform="translate(3.203 5.821)"/>
  <rect id="Rectangle_1853" data-name="Rectangle 1853" class="cls-1" width="0.641" height="0.647" transform="translate(3.203 6.468)"/>
  <rect id="Rectangle_1854" data-name="Rectangle 1854" class="cls-1" width="0.641" height="0.647" transform="translate(3.203 7.114)"/>
  <rect id="Rectangle_1855" data-name="Rectangle 1855" class="cls-1" width="0.641" height="0.647" transform="translate(3.203 7.761)"/>
  <rect id="Rectangle_1858" data-name="Rectangle 1858" class="cls-1" width="0.641" height="0.647" transform="translate(3.203 9.701)"/>
  <rect id="Rectangle_1859" data-name="Rectangle 1859" class="cls-1" width="0.641" height="0.647" transform="translate(3.203 11.642)"/>
  <rect id="Rectangle_1860" data-name="Rectangle 1860" class="cls-1" width="0.641" height="0.647" transform="translate(3.203 15.522)"/>
  <rect id="Rectangle_1861" data-name="Rectangle 1861" class="cls-1" width="0.641" height="0.647" transform="translate(3.844)"/>
  <rect id="Rectangle_1862" data-name="Rectangle 1862" class="cls-1" width="0.641" height="0.647" transform="translate(3.844 0.647)"/>
  <rect id="Rectangle_1863" data-name="Rectangle 1863" class="cls-1" width="0.641" height="0.647" transform="translate(3.844 1.294)"/>
  <rect id="Rectangle_1864" data-name="Rectangle 1864" class="cls-1" width="0.641" height="0.647" transform="translate(3.844 1.94)"/>
  <rect id="Rectangle_1865" data-name="Rectangle 1865" class="cls-1" width="0.641" height="0.647" transform="translate(3.844 2.587)"/>
  <rect id="Rectangle_1866" data-name="Rectangle 1866" class="cls-1" width="0.641" height="0.647" transform="translate(3.844 3.234)"/>
  <rect id="Rectangle_1867" data-name="Rectangle 1867" class="cls-1" width="0.641" height="0.647" transform="translate(3.844 3.881)"/>
  <rect id="Rectangle_1868" data-name="Rectangle 1868" class="cls-1" width="0.641" height="0.647" transform="translate(3.844 5.174)"/>
  <rect id="Rectangle_1869" data-name="Rectangle 1869" class="cls-1" width="0.641" height="0.647" transform="translate(3.844 6.468)"/>
  <rect id="Rectangle_1870" data-name="Rectangle 1870" class="cls-1" width="0.641" height="0.647" transform="translate(3.844 7.761)"/>
  <rect id="Rectangle_1871" data-name="Rectangle 1871" class="cls-1" width="0.641" height="0.647" transform="translate(3.844 9.055)"/>
  <rect id="Rectangle_1872" data-name="Rectangle 1872" class="cls-1" width="0.641" height="0.647" transform="translate(3.844 10.348)"/>
  <rect id="Rectangle_1873" data-name="Rectangle 1873" class="cls-1" width="0.641" height="0.647" transform="translate(3.844 11.642)"/>
  <rect id="Rectangle_1874" data-name="Rectangle 1874" class="cls-1" width="0.641" height="0.647" transform="translate(3.844 12.289)"/>
  <rect id="Rectangle_1875" data-name="Rectangle 1875" class="cls-1" width="0.641" height="0.647" transform="translate(3.844 12.935)"/>
  <rect id="Rectangle_1876" data-name="Rectangle 1876" class="cls-1" width="0.641" height="0.647" transform="translate(3.844 13.582)"/>
  <rect id="Rectangle_1877" data-name="Rectangle 1877" class="cls-1" width="0.641" height="0.647" transform="translate(3.844 14.229)"/>
  <rect id="Rectangle_1878" data-name="Rectangle 1878" class="cls-1" width="0.641" height="0.647" transform="translate(3.844 14.876)"/>
  <rect id="Rectangle_1879" data-name="Rectangle 1879" class="cls-1" width="0.641" height="0.647" transform="translate(3.844 15.522)"/>
  <rect id="Rectangle_1880" data-name="Rectangle 1880" class="cls-1" width="0.641" height="0.647" transform="translate(4.485 7.114)"/>
  <rect id="Rectangle_1881" data-name="Rectangle 1881" class="cls-1" width="0.641" height="0.647" transform="translate(4.485 7.761)"/>
  <rect id="Rectangle_1882" data-name="Rectangle 1882" class="cls-1" width="0.641" height="0.647" transform="translate(4.485 10.348)"/>
  <rect id="Rectangle_1883" data-name="Rectangle 1883" class="cls-1" width="0.641" height="0.647" transform="translate(5.125)"/>
  <rect id="Rectangle_1884" data-name="Rectangle 1884" class="cls-1" width="0.641" height="0.647" transform="translate(5.125 3.881)"/>
  <rect id="Rectangle_1885" data-name="Rectangle 1885" class="cls-1" width="0.641" height="0.647" transform="translate(5.125 4.527)"/>
  <rect id="Rectangle_1886" data-name="Rectangle 1886" class="cls-1" width="0.641" height="0.647" transform="translate(5.125 5.821)"/>
  <rect id="Rectangle_1887" data-name="Rectangle 1887" class="cls-1" width="0.641" height="0.647" transform="translate(5.125 7.114)"/>
  <rect id="Rectangle_1888" data-name="Rectangle 1888" class="cls-1" width="0.641" height="0.647" transform="translate(5.125 8.408)"/>
  <rect id="Rectangle_1890" data-name="Rectangle 1890" class="cls-1" width="0.641" height="0.647" transform="translate(5.125 9.701)"/>
  <rect id="Rectangle_1891" data-name="Rectangle 1891" class="cls-1" width="0.641" height="0.647" transform="translate(5.125 10.995)"/>
  <rect id="Rectangle_1892" data-name="Rectangle 1892" class="cls-1" width="0.641" height="0.647" transform="translate(5.125 12.935)"/>
  <rect id="Rectangle_1893" data-name="Rectangle 1893" class="cls-1" width="0.641" height="0.647" transform="translate(5.125 13.582)"/>
  <rect id="Rectangle_1894" data-name="Rectangle 1894" class="cls-1" width="0.641" height="0.647" transform="translate(5.125 14.876)"/>
  <rect id="Rectangle_1895" data-name="Rectangle 1895" class="cls-1" width="0.641" height="0.647" transform="translate(5.125 15.522)"/>
  <rect id="Rectangle_1896" data-name="Rectangle 1896" class="cls-1" width="0.641" height="0.647" transform="translate(5.766 0.647)"/>
  <rect id="Rectangle_1897" data-name="Rectangle 1897" class="cls-1" width="0.641" height="0.647" transform="translate(5.766 2.587)"/>
  <rect id="Rectangle_1898" data-name="Rectangle 1898" class="cls-1" width="0.641" height="0.647" transform="translate(5.766 5.174)"/>
  <rect id="Rectangle_1899" data-name="Rectangle 1899" class="cls-1" width="0.641" height="0.647" transform="translate(5.766 5.821)"/>
  <rect id="Rectangle_1900" data-name="Rectangle 1900" class="cls-1" width="0.641" height="0.647" transform="translate(5.766 7.114)"/>
  <rect id="Rectangle_1901" data-name="Rectangle 1901" class="cls-1" width="0.641" height="0.647" transform="translate(5.766 7.761)"/>
  <rect id="Rectangle_1902" data-name="Rectangle 1902" class="cls-1" width="0.641" height="0.647" transform="translate(5.766 8.408)"/>
  <rect id="Rectangle_1904" data-name="Rectangle 1904" class="cls-1" width="0.641" height="0.647" transform="translate(5.766 9.701)"/>
  <rect id="Rectangle_1905" data-name="Rectangle 1905" class="cls-1" width="0.641" height="0.647" transform="translate(5.766 10.348)"/>
  <rect id="Rectangle_1906" data-name="Rectangle 1906" class="cls-1" width="0.641" height="0.647" transform="translate(5.766 11.642)"/>
  <rect id="Rectangle_1907" data-name="Rectangle 1907" class="cls-1" width="0.641" height="0.647" transform="translate(5.766 12.289)"/>
  <rect id="Rectangle_1908" data-name="Rectangle 1908" class="cls-1" width="0.641" height="0.647" transform="translate(5.766 12.935)"/>
  <rect id="Rectangle_1909" data-name="Rectangle 1909" class="cls-1" width="0.641" height="0.647" transform="translate(5.766 13.582)"/>
  <rect id="Rectangle_1910" data-name="Rectangle 1910" class="cls-1" width="0.641" height="0.647" transform="translate(5.766 14.229)"/>
  <rect id="Rectangle_1911" data-name="Rectangle 1911" class="cls-1" width="0.641" height="0.647" transform="translate(6.406 0.647)"/>
  <rect id="Rectangle_1912" data-name="Rectangle 1912" class="cls-1" width="0.641" height="0.647" transform="translate(6.406 1.294)"/>
  <rect id="Rectangle_1913" data-name="Rectangle 1913" class="cls-1" width="0.641" height="0.647" transform="translate(6.406 3.234)"/>
  <rect id="Rectangle_1914" data-name="Rectangle 1914" class="cls-1" width="0.641" height="0.647" transform="translate(6.406 3.881)"/>
  <rect id="Rectangle_1915" data-name="Rectangle 1915" class="cls-1" width="0.641" height="0.647" transform="translate(6.406 4.527)"/>
  <rect id="Rectangle_1916" data-name="Rectangle 1916" class="cls-1" width="0.641" height="0.647" transform="translate(6.406 5.174)"/>
  <rect id="Rectangle_1917" data-name="Rectangle 1917" class="cls-1" width="0.641" height="0.647" transform="translate(6.406 6.468)"/>
  <rect id="Rectangle_1919" data-name="Rectangle 1919" class="cls-1" width="0.641" height="0.647" transform="translate(6.406 9.055)"/>
  <rect id="Rectangle_1921" data-name="Rectangle 1921" class="cls-1" width="0.641" height="0.647" transform="translate(6.406 10.348)"/>
  <rect id="Rectangle_1922" data-name="Rectangle 1922" class="cls-1" width="0.641" height="0.647" transform="translate(6.406 11.642)"/>
  <rect id="Rectangle_1923" data-name="Rectangle 1923" class="cls-1" width="0.641" height="0.647" transform="translate(6.406 13.582)"/>
  <rect id="Rectangle_1924" data-name="Rectangle 1924" class="cls-1" width="0.641" height="0.647" transform="translate(6.406 14.876)"/>
  <rect id="Rectangle_1925" data-name="Rectangle 1925" class="cls-1" width="0.641" height="0.647" transform="translate(6.406 15.522)"/>
  <rect id="Rectangle_1926" data-name="Rectangle 1926" class="cls-1" width="0.641" height="0.647" transform="translate(7.047)"/>
  <rect id="Rectangle_1927" data-name="Rectangle 1927" class="cls-1" width="0.641" height="0.647" transform="translate(7.047 2.587)"/>
  <rect id="Rectangle_1928" data-name="Rectangle 1928" class="cls-1" width="0.641" height="0.647" transform="translate(7.047 4.527)"/>
  <rect id="Rectangle_1930" data-name="Rectangle 1930" class="cls-1" width="0.641" height="0.647" transform="translate(7.047 6.468)"/>
  <rect id="Rectangle_1931" data-name="Rectangle 1931" class="cls-1" width="0.641" height="0.647" transform="translate(7.047 7.114)"/>
  <rect id="Rectangle_1932" data-name="Rectangle 1932" class="cls-1" width="0.641" height="0.647" transform="translate(7.047 7.761)"/>
  <rect id="Rectangle_1933" data-name="Rectangle 1933" class="cls-1" width="0.641" height="0.647" transform="translate(7.047 9.055)"/>
  <rect id="Rectangle_1934" data-name="Rectangle 1934" class="cls-1" width="0.641" height="0.647" transform="translate(7.047 9.701)"/>
  <rect id="Rectangle_1935" data-name="Rectangle 1935" class="cls-1" width="0.641" height="0.647" transform="translate(7.047 10.995)"/>
  <rect id="Rectangle_1936" data-name="Rectangle 1936" class="cls-1" width="0.641" height="0.647" transform="translate(7.047 11.642)"/>
  <rect id="Rectangle_1937" data-name="Rectangle 1937" class="cls-1" width="0.641" height="0.647" transform="translate(7.688)"/>
  <rect id="Rectangle_1938" data-name="Rectangle 1938" class="cls-1" width="0.641" height="0.647" transform="translate(7.688 1.294)"/>
  <rect id="Rectangle_1939" data-name="Rectangle 1939" class="cls-1" width="0.641" height="0.647" transform="translate(7.688 1.94)"/>
  <rect id="Rectangle_1940" data-name="Rectangle 1940" class="cls-1" width="0.641" height="0.647" transform="translate(7.688 3.234)"/>
  <rect id="Rectangle_1942" data-name="Rectangle 1942" class="cls-1" width="0.641" height="0.647" transform="translate(7.688 5.821)"/>
  <rect id="Rectangle_1943" data-name="Rectangle 1943" class="cls-1" width="0.641" height="0.647" transform="translate(7.688 7.114)"/>
  <rect id="Rectangle_1944" data-name="Rectangle 1944" class="cls-1" width="0.641" height="0.647" transform="translate(7.688 7.761)"/>
  <rect id="Rectangle_1945" data-name="Rectangle 1945" class="cls-1" width="0.641" height="0.647" transform="translate(7.688 9.055)"/>
  <rect id="Rectangle_1946" data-name="Rectangle 1946" class="cls-1" width="0.641" height="0.647" transform="translate(7.688 10.995)"/>
  <rect id="Rectangle_1947" data-name="Rectangle 1947" class="cls-1" width="0.641" height="0.647" transform="translate(7.688 12.289)"/>
  <rect id="Rectangle_1948" data-name="Rectangle 1948" class="cls-1" width="0.641" height="0.647" transform="translate(7.688 12.935)"/>
  <rect id="Rectangle_1949" data-name="Rectangle 1949" class="cls-1" width="0.641" height="0.647" transform="translate(7.688 14.229)"/>
  <rect id="Rectangle_1950" data-name="Rectangle 1950" class="cls-1" width="0.641" height="0.647" transform="translate(8.328 1.294)"/>
  <rect id="Rectangle_1951" data-name="Rectangle 1951" class="cls-1" width="0.641" height="0.647" transform="translate(8.328 1.94)"/>
  <rect id="Rectangle_1952" data-name="Rectangle 1952" class="cls-1" width="0.641" height="0.647" transform="translate(8.328 3.234)"/>
  <rect id="Rectangle_1953" data-name="Rectangle 1953" class="cls-1" width="0.641" height="0.647" transform="translate(8.328 4.527)"/>
  <rect id="Rectangle_1954" data-name="Rectangle 1954" class="cls-1" width="0.641" height="0.647" transform="translate(8.328 5.821)"/>
  <rect id="Rectangle_1956" data-name="Rectangle 1956" class="cls-1" width="0.641" height="0.647" transform="translate(8.328 9.055)"/>
  <rect id="Rectangle_1957" data-name="Rectangle 1957" class="cls-1" width="0.641" height="0.647" transform="translate(8.328 10.995)"/>
  <rect id="Rectangle_1959" data-name="Rectangle 1959" class="cls-1" width="0.641" height="0.647" transform="translate(8.328 15.522)"/>
  <rect id="Rectangle_1960" data-name="Rectangle 1960" class="cls-1" width="0.641" height="0.647" transform="translate(8.969)"/>
  <rect id="Rectangle_1961" data-name="Rectangle 1961" class="cls-1" width="0.641" height="0.647" transform="translate(8.969 2.587)"/>
  <rect id="Rectangle_1962" data-name="Rectangle 1962" class="cls-1" width="0.641" height="0.647" transform="translate(8.969 3.881)"/>
  <rect id="Rectangle_1963" data-name="Rectangle 1963" class="cls-1" width="0.641" height="0.647" transform="translate(8.969 5.174)"/>
  <rect id="Rectangle_1964" data-name="Rectangle 1964" class="cls-1" width="0.641" height="0.647" transform="translate(8.969 5.821)"/>
  <rect id="Rectangle_1966" data-name="Rectangle 1966" class="cls-1" width="0.641" height="0.647" transform="translate(8.969 8.408)"/>
  <rect id="Rectangle_1967" data-name="Rectangle 1967" class="cls-1" width="0.641" height="0.647" transform="translate(8.969 9.055)"/>
  <rect id="Rectangle_1968" data-name="Rectangle 1968" class="cls-1" width="0.641" height="0.647" transform="translate(8.969 10.348)"/>
  <rect id="Rectangle_1969" data-name="Rectangle 1969" class="cls-1" width="0.641" height="0.647" transform="translate(8.969 12.289)"/>
  <rect id="Rectangle_1970" data-name="Rectangle 1970" class="cls-1" width="0.641" height="0.647" transform="translate(8.969 12.935)"/>
  <rect id="Rectangle_1971" data-name="Rectangle 1971" class="cls-1" width="0.641" height="0.647" transform="translate(8.969 13.582)"/>
  <rect id="Rectangle_1972" data-name="Rectangle 1972" class="cls-1" width="0.641" height="0.647" transform="translate(8.969 14.229)"/>
  <rect id="Rectangle_1973" data-name="Rectangle 1973" class="cls-1" width="0.641" height="0.647" transform="translate(8.969 14.876)"/>
  <rect id="Rectangle_1974" data-name="Rectangle 1974" class="cls-1" width="0.641" height="0.647" transform="translate(8.969 15.522)"/>
  <rect id="Rectangle_1975" data-name="Rectangle 1975" class="cls-1" width="0.641" height="0.647" transform="translate(9.61 1.294)"/>
  <rect id="Rectangle_1976" data-name="Rectangle 1976" class="cls-1" width="0.641" height="0.647" transform="translate(9.61 5.174)"/>
  <rect id="Rectangle_1977" data-name="Rectangle 1977" class="cls-1" width="0.641" height="0.647" transform="translate(9.61 5.821)"/>
  <rect id="Rectangle_1978" data-name="Rectangle 1978" class="cls-1" width="0.641" height="0.647" transform="translate(9.61 6.468)"/>
  <rect id="Rectangle_1979" data-name="Rectangle 1979" class="cls-1" width="0.641" height="0.647" transform="translate(9.61 7.114)"/>
  <rect id="Rectangle_1980" data-name="Rectangle 1980" class="cls-1" width="0.641" height="0.647" transform="translate(9.61 8.408)"/>
  <rect id="Rectangle_1982" data-name="Rectangle 1982" class="cls-1" width="0.641" height="0.647" transform="translate(9.61 9.701)"/>
  <rect id="Rectangle_1983" data-name="Rectangle 1983" class="cls-1" width="0.641" height="0.647" transform="translate(9.61 10.348)"/>
  <rect id="Rectangle_1984" data-name="Rectangle 1984" class="cls-1" width="0.641" height="0.647" transform="translate(9.61 12.289)"/>
  <rect id="Rectangle_1985" data-name="Rectangle 1985" class="cls-1" width="0.641" height="0.647" transform="translate(9.61 12.935)"/>
  <rect id="Rectangle_1986" data-name="Rectangle 1986" class="cls-1" width="0.641" height="0.647" transform="translate(9.61 14.229)"/>
  <rect id="Rectangle_1987" data-name="Rectangle 1987" class="cls-1" width="0.641" height="0.647" transform="translate(9.61 14.876)"/>
  <rect id="Rectangle_1988" data-name="Rectangle 1988" class="cls-1" width="0.641" height="0.647" transform="translate(10.25)"/>
  <rect id="Rectangle_1989" data-name="Rectangle 1989" class="cls-1" width="0.641" height="0.647" transform="translate(10.25 0.647)"/>
  <rect id="Rectangle_1990" data-name="Rectangle 1990" class="cls-1" width="0.641" height="0.647" transform="translate(10.25 1.94)"/>
  <rect id="Rectangle_1991" data-name="Rectangle 1991" class="cls-1" width="0.641" height="0.647" transform="translate(10.25 2.587)"/>
  <rect id="Rectangle_1992" data-name="Rectangle 1992" class="cls-1" width="0.641" height="0.647" transform="translate(10.25 3.234)"/>
  <rect id="Rectangle_1993" data-name="Rectangle 1993" class="cls-1" width="0.641" height="0.647" transform="translate(10.25 3.881)"/>
  <rect id="Rectangle_1995" data-name="Rectangle 1995" class="cls-1" width="0.641" height="0.647" transform="translate(10.25 5.174)"/>
  <rect id="Rectangle_1996" data-name="Rectangle 1996" class="cls-1" width="0.641" height="0.647" transform="translate(10.25 6.468)"/>
  <rect id="Rectangle_1997" data-name="Rectangle 1997" class="cls-1" width="0.641" height="0.647" transform="translate(10.25 7.761)"/>
  <rect id="Rectangle_1999" data-name="Rectangle 1999" class="cls-1" width="0.641" height="0.647" transform="translate(10.25 9.701)"/>
  <rect id="Rectangle_2001" data-name="Rectangle 2001" class="cls-1" width="0.641" height="0.647" transform="translate(10.25 10.995)"/>
  <rect id="Rectangle_2002" data-name="Rectangle 2002" class="cls-1" width="0.641" height="0.647" transform="translate(10.25 11.642)"/>
  <rect id="Rectangle_2003" data-name="Rectangle 2003" class="cls-1" width="0.641" height="0.647" transform="translate(10.25 12.289)"/>
  <rect id="Rectangle_2004" data-name="Rectangle 2004" class="cls-1" width="0.641" height="0.647" transform="translate(10.25 12.935)"/>
  <rect id="Rectangle_2005" data-name="Rectangle 2005" class="cls-1" width="0.641" height="0.647" transform="translate(10.25 15.522)"/>
  <rect id="Rectangle_2006" data-name="Rectangle 2006" class="cls-1" width="0.641" height="0.647" transform="translate(10.891 8.408)"/>
  <rect id="Rectangle_2008" data-name="Rectangle 2008" class="cls-1" width="0.641" height="0.647" transform="translate(10.891 12.935)"/>
  <rect id="Rectangle_2009" data-name="Rectangle 2009" class="cls-1" width="0.641" height="0.647" transform="translate(10.891 13.582)"/>
  <rect id="Rectangle_2010" data-name="Rectangle 2010" class="cls-1" width="0.641" height="0.647" transform="translate(10.891 14.876)"/>
  <rect id="Rectangle_2011" data-name="Rectangle 2011" class="cls-1" width="0.641" height="0.647" transform="translate(11.532)"/>
  <rect id="Rectangle_2012" data-name="Rectangle 2012" class="cls-1" width="0.641" height="0.647" transform="translate(11.532 0.647)"/>
  <rect id="Rectangle_2013" data-name="Rectangle 2013" class="cls-1" width="0.641" height="0.647" transform="translate(11.532 1.294)"/>
  <rect id="Rectangle_2014" data-name="Rectangle 2014" class="cls-1" width="0.641" height="0.647" transform="translate(11.532 1.94)"/>
  <rect id="Rectangle_2015" data-name="Rectangle 2015" class="cls-1" width="0.641" height="0.647" transform="translate(11.532 2.587)"/>
  <rect id="Rectangle_2016" data-name="Rectangle 2016" class="cls-1" width="0.641" height="0.647" transform="translate(11.532 3.234)"/>
  <rect id="Rectangle_2017" data-name="Rectangle 2017" class="cls-1" width="0.641" height="0.647" transform="translate(11.532 3.881)"/>
  <rect id="Rectangle_2018" data-name="Rectangle 2018" class="cls-1" width="0.641" height="0.647" transform="translate(11.532 5.174)"/>
  <rect id="Rectangle_2019" data-name="Rectangle 2019" class="cls-1" width="0.641" height="0.647" transform="translate(11.532 7.761)"/>
  <rect id="Rectangle_2020" data-name="Rectangle 2020" class="cls-1" width="0.641" height="0.647" transform="translate(11.532 9.055)"/>
  <rect id="Rectangle_2021" data-name="Rectangle 2021" class="cls-1" width="0.641" height="0.647" transform="translate(11.532 10.348)"/>
  <rect id="Rectangle_2022" data-name="Rectangle 2022" class="cls-1" width="0.641" height="0.647" transform="translate(11.532 11.642)"/>
  <rect id="Rectangle_2023" data-name="Rectangle 2023" class="cls-1" width="0.641" height="0.647" transform="translate(11.532 12.935)"/>
  <rect id="Rectangle_2024" data-name="Rectangle 2024" class="cls-1" width="0.641" height="0.647" transform="translate(11.532 13.582)"/>
  <rect id="Rectangle_2025" data-name="Rectangle 2025" class="cls-1" width="0.641" height="0.647" transform="translate(11.532 14.876)"/>
  <rect id="Rectangle_2026" data-name="Rectangle 2026" class="cls-1" width="0.641" height="0.647" transform="translate(11.532 15.522)"/>
  <rect id="Rectangle_2027" data-name="Rectangle 2027" class="cls-1" width="0.641" height="0.647" transform="translate(12.172)"/>
  <rect id="Rectangle_2028" data-name="Rectangle 2028" class="cls-1" width="0.641" height="0.647" transform="translate(12.172 3.881)"/>
  <rect id="Rectangle_2029" data-name="Rectangle 2029" class="cls-1" width="0.641" height="0.647" transform="translate(12.172 5.821)"/>
  <rect id="Rectangle_2030" data-name="Rectangle 2030" class="cls-1" width="0.641" height="0.647" transform="translate(12.172 7.114)"/>
  <rect id="Rectangle_2031" data-name="Rectangle 2031" class="cls-1" width="0.641" height="0.647" transform="translate(12.172 7.761)"/>
  <rect id="Rectangle_2032" data-name="Rectangle 2032" class="cls-1" width="0.641" height="0.647" transform="translate(12.172 9.701)"/>
  <rect id="Rectangle_2033" data-name="Rectangle 2033" class="cls-1" width="0.641" height="0.647" transform="translate(12.172 10.348)"/>
  <rect id="Rectangle_2034" data-name="Rectangle 2034" class="cls-1" width="0.641" height="0.647" transform="translate(12.172 12.935)"/>
  <rect id="Rectangle_2035" data-name="Rectangle 2035" class="cls-1" width="0.641" height="0.647" transform="translate(12.172 14.876)"/>
  <rect id="Rectangle_2036" data-name="Rectangle 2036" class="cls-1" width="0.641" height="0.647" transform="translate(12.813)"/>
  <rect id="Rectangle_2037" data-name="Rectangle 2037" class="cls-1" width="0.641" height="0.647" transform="translate(12.813 1.294)"/>
  <rect id="Rectangle_2038" data-name="Rectangle 2038" class="cls-1" width="0.641" height="0.647" transform="translate(12.813 1.94)"/>
  <rect id="Rectangle_2039" data-name="Rectangle 2039" class="cls-1" width="0.641" height="0.647" transform="translate(12.813 2.587)"/>
  <rect id="Rectangle_2040" data-name="Rectangle 2040" class="cls-1" width="0.641" height="0.647" transform="translate(12.813 3.881)"/>
  <rect id="Rectangle_2041" data-name="Rectangle 2041" class="cls-1" width="0.641" height="0.647" transform="translate(12.813 5.821)"/>
  <rect id="Rectangle_2042" data-name="Rectangle 2042" class="cls-1" width="0.641" height="0.647" transform="translate(12.813 8.408)"/>
  <rect id="Rectangle_2043" data-name="Rectangle 2043" class="cls-1" width="0.641" height="0.647" transform="translate(12.813 9.055)"/>
  <rect id="Rectangle_2044" data-name="Rectangle 2044" class="cls-1" width="0.641" height="0.647" transform="translate(12.813 10.348)"/>
  <rect id="Rectangle_2046" data-name="Rectangle 2046" class="cls-1" width="0.641" height="0.647" transform="translate(12.813 11.642)"/>
  <rect id="Rectangle_2047" data-name="Rectangle 2047" class="cls-1" width="0.641" height="0.647" transform="translate(12.813 12.289)"/>
  <rect id="Rectangle_2048" data-name="Rectangle 2048" class="cls-1" width="0.641" height="0.647" transform="translate(12.813 12.935)"/>
  <rect id="Rectangle_2049" data-name="Rectangle 2049" class="cls-1" width="0.641" height="0.647" transform="translate(12.813 14.229)"/>
  <rect id="Rectangle_2050" data-name="Rectangle 2050" class="cls-1" width="0.641" height="0.647" transform="translate(12.813 14.876)"/>
  <rect id="Rectangle_2051" data-name="Rectangle 2051" class="cls-1" width="0.641" height="0.647" transform="translate(13.454)"/>
  <rect id="Rectangle_2052" data-name="Rectangle 2052" class="cls-1" width="0.641" height="0.647" transform="translate(13.454 1.294)"/>
  <rect id="Rectangle_2053" data-name="Rectangle 2053" class="cls-1" width="0.641" height="0.647" transform="translate(13.454 1.94)"/>
  <rect id="Rectangle_2054" data-name="Rectangle 2054" class="cls-1" width="0.641" height="0.647" transform="translate(13.454 2.587)"/>
  <rect id="Rectangle_2055" data-name="Rectangle 2055" class="cls-1" width="0.641" height="0.647" transform="translate(13.454 3.881)"/>
  <rect id="Rectangle_2056" data-name="Rectangle 2056" class="cls-1" width="0.641" height="0.647" transform="translate(13.454 5.821)"/>
  <rect id="Rectangle_2057" data-name="Rectangle 2057" class="cls-1" width="0.641" height="0.647" transform="translate(13.454 6.468)"/>
  <rect id="Rectangle_2058" data-name="Rectangle 2058" class="cls-1" width="0.641" height="0.647" transform="translate(13.454 7.114)"/>
  <rect id="Rectangle_2059" data-name="Rectangle 2059" class="cls-1" width="0.641" height="0.647" transform="translate(13.454 9.055)"/>
  <rect id="Rectangle_2060" data-name="Rectangle 2060" class="cls-1" width="0.641" height="0.647" transform="translate(13.454 9.701)"/>
  <rect id="Rectangle_2061" data-name="Rectangle 2061" class="cls-1" width="0.641" height="0.647" transform="translate(13.454 14.229)"/>
  <rect id="Rectangle_2062" data-name="Rectangle 2062" class="cls-1" width="0.641" height="0.647" transform="translate(13.454 15.522)"/>
  <rect id="Rectangle_2063" data-name="Rectangle 2063" class="cls-1" width="0.641" height="0.647" transform="translate(14.094)"/>
  <rect id="Rectangle_2064" data-name="Rectangle 2064" class="cls-1" width="0.641" height="0.647" transform="translate(14.094 1.294)"/>
  <rect id="Rectangle_2065" data-name="Rectangle 2065" class="cls-1" width="0.641" height="0.647" transform="translate(14.094 1.94)"/>
  <rect id="Rectangle_2066" data-name="Rectangle 2066" class="cls-1" width="0.641" height="0.647" transform="translate(14.094 2.587)"/>
  <rect id="Rectangle_2067" data-name="Rectangle 2067" class="cls-1" width="0.641" height="0.647" transform="translate(14.094 3.881)"/>
  <rect id="Rectangle_2068" data-name="Rectangle 2068" class="cls-1" width="0.641" height="0.647" transform="translate(14.094 5.821)"/>
  <rect id="Rectangle_2069" data-name="Rectangle 2069" class="cls-1" width="0.641" height="0.647" transform="translate(14.094 7.114)"/>
  <rect id="Rectangle_2070" data-name="Rectangle 2070" class="cls-1" width="0.641" height="0.647" transform="translate(14.094 9.055)"/>
  <rect id="Rectangle_2071" data-name="Rectangle 2071" class="cls-1" width="0.641" height="0.647" transform="translate(14.094 9.701)"/>
  <rect id="Rectangle_2072" data-name="Rectangle 2072" class="cls-1" width="0.641" height="0.647" transform="translate(14.094 10.348)"/>
  <rect id="Rectangle_2073" data-name="Rectangle 2073" class="cls-1" width="0.641" height="0.647" transform="translate(14.094 10.995)"/>
  <rect id="Rectangle_2074" data-name="Rectangle 2074" class="cls-1" width="0.641" height="0.647" transform="translate(14.094 14.229)"/>
  <rect id="Rectangle_2075" data-name="Rectangle 2075" class="cls-1" width="0.641" height="0.647" transform="translate(14.094 14.876)"/>
  <rect id="Rectangle_2076" data-name="Rectangle 2076" class="cls-1" width="0.641" height="0.647" transform="translate(14.735)"/>
  <rect id="Rectangle_2077" data-name="Rectangle 2077" class="cls-1" width="0.641" height="0.647" transform="translate(14.735 3.881)"/>
  <rect id="Rectangle_2078" data-name="Rectangle 2078" class="cls-1" width="0.641" height="0.647" transform="translate(14.735 5.821)"/>
  <rect id="Rectangle_2079" data-name="Rectangle 2079" class="cls-1" width="0.641" height="0.647" transform="translate(14.735 7.114)"/>
  <rect id="Rectangle_2080" data-name="Rectangle 2080" class="cls-1" width="0.641" height="0.647" transform="translate(14.735 8.408)"/>
  <rect id="Rectangle_2081" data-name="Rectangle 2081" class="cls-1" width="0.641" height="0.647" transform="translate(14.735 9.055)"/>
  <rect id="Rectangle_2082" data-name="Rectangle 2082" class="cls-1" width="0.641" height="0.647" transform="translate(14.735 10.348)"/>
  <rect id="Rectangle_2083" data-name="Rectangle 2083" class="cls-1" width="0.641" height="0.647" transform="translate(14.735 10.995)"/>
  <rect id="Rectangle_2084" data-name="Rectangle 2084" class="cls-1" width="0.641" height="0.647" transform="translate(14.735 12.289)"/>
  <rect id="Rectangle_2085" data-name="Rectangle 2085" class="cls-1" width="0.641" height="0.647" transform="translate(14.735 12.935)"/>
  <rect id="Rectangle_2086" data-name="Rectangle 2086" class="cls-1" width="0.641" height="0.647" transform="translate(14.735 13.582)"/>
  <rect id="Rectangle_2087" data-name="Rectangle 2087" class="cls-1" width="0.641" height="0.647" transform="translate(14.735 14.229)"/>
  <rect id="Rectangle_2088" data-name="Rectangle 2088" class="cls-1" width="0.641" height="0.647" transform="translate(14.735 14.876)"/>
  <rect id="Rectangle_2089" data-name="Rectangle 2089" class="cls-1" width="0.641" height="0.647" transform="translate(15.375)"/>
  <rect id="Rectangle_2090" data-name="Rectangle 2090" class="cls-1" width="0.641" height="0.647" transform="translate(15.375 0.647)"/>
  <rect id="Rectangle_2091" data-name="Rectangle 2091" class="cls-1" width="0.641" height="0.647" transform="translate(15.375 1.294)"/>
  <rect id="Rectangle_2092" data-name="Rectangle 2092" class="cls-1" width="0.641" height="0.647" transform="translate(15.375 1.94)"/>
  <rect id="Rectangle_2093" data-name="Rectangle 2093" class="cls-1" width="0.641" height="0.647" transform="translate(15.375 2.587)"/>
  <rect id="Rectangle_2094" data-name="Rectangle 2094" class="cls-1" width="0.641" height="0.647" transform="translate(15.375 3.234)"/>
  <rect id="Rectangle_2095" data-name="Rectangle 2095" class="cls-1" width="0.641" height="0.647" transform="translate(15.375 3.881)"/>
  <rect id="Rectangle_2096" data-name="Rectangle 2096" class="cls-1" width="0.641" height="0.647" transform="translate(15.375 5.174)"/>
  <rect id="Rectangle_2097" data-name="Rectangle 2097" class="cls-1" width="0.641" height="0.647" transform="translate(15.375 6.468)"/>
  <rect id="Rectangle_2098" data-name="Rectangle 2098" class="cls-1" width="0.641" height="0.647" transform="translate(15.375 7.114)"/>
  <rect id="Rectangle_2099" data-name="Rectangle 2099" class="cls-1" width="0.641" height="0.647" transform="translate(15.375 7.761)"/>
  <rect id="Rectangle_2100" data-name="Rectangle 2100" class="cls-1" width="0.641" height="0.647" transform="translate(15.375 9.055)"/>
  <rect id="Rectangle_2101" data-name="Rectangle 2101" class="cls-1" width="0.641" height="0.647" transform="translate(15.375 9.701)"/>
  <rect id="Rectangle_2102" data-name="Rectangle 2102" class="cls-1" width="0.641" height="0.647" transform="translate(15.375 11.642)"/>
  <rect id="Rectangle_2103" data-name="Rectangle 2103" class="cls-1" width="0.641" height="0.647" transform="translate(15.375 12.289)"/>
  <rect id="Rectangle_2104" data-name="Rectangle 2104" class="cls-1" width="0.641" height="0.647" transform="translate(15.375 12.935)"/>
  <rect id="Rectangle_2105" data-name="Rectangle 2105" class="cls-1" width="0.641" height="0.647" transform="translate(15.375 13.582)"/>
  <rect id="Rectangle_2106" data-name="Rectangle 2106" class="cls-1" width="0.641" height="0.647" transform="translate(15.375 14.229)"/>
  <rect id="Rectangle_2107" data-name="Rectangle 2107" class="cls-1" width="0.641" height="0.647" transform="translate(15.375 14.876)"/>
  <rect id="Rectangle_2108" data-name="Rectangle 2108" class="cls-1" width="0.641" height="0.647" transform="translate(15.375 15.522)"/>
</svg>
