<svg xmlns="http://www.w3.org/2000/svg" width="10.438" height="13.569" viewBox="0 0 10.438 13.569">
  <defs>
    <style>
      .cls-1 {
        fill: #fff;
      }
    </style>
  </defs>
  <path id="_ionicons_svg_logo-euro" class="cls-1" d="M100.5,55.306V53.741h4.276l.233-1.566H100.5v-.06c0-1.172.488-1.895,2.585-1.895a18.248,18.248,0,0,1,3.04.285l.312-2.119A14.784,14.784,0,0,0,102.982,48c-3.742,0-5.351,1.345-5.351,3.83v.345H96v1.566h1.631v1.566H96v1.566h1.631v.867c0,2.486,1.608,3.83,5.35,3.83a14.762,14.762,0,0,0,3.453-.387l-.314-2.119a18.2,18.2,0,0,1-3.035.285c-2.1,0-2.584-.611-2.584-2.058v-.418h3.81l.233-1.566Z" transform="translate(-96 -48)"/>
</svg>
