<svg xmlns="http://www.w3.org/2000/svg" xmlns:xlink="http://www.w3.org/1999/xlink" width="9.131" height="15.239" viewBox="0 0 9.131 15.239">
  <defs>
    <clipPath id="clip-path">
      <path id="Path_399" data-name="Path 399" d="M720.6,306.4h9.128v4.891H720.6Z" transform="translate(-720.6 -306.4)" fill="#fff"/>
    </clipPath>
    <clipPath id="clip-path-2">
      <path id="Path_401" data-name="Path 401" d="M720.6,0h4.565V10.526H720.6Z" transform="translate(-720.6)" fill="#fff"/>
    </clipPath>
    <clipPath id="clip-path-3">
      <path id="Path_403" data-name="Path 403" d="M975,0h4.565V10.526H975Z" transform="translate(-975)" fill="#fff"/>
    </clipPath>
    <clipPath id="clip-path-4">
      <path id="Path_405" data-name="Path 405" d="M720.6,470.3h4.565v6.59H720.6Z" transform="translate(-720.6 -470.3)" fill="#fff"/>
    </clipPath>
    <clipPath id="clip-path-5">
      <path id="Path_407" data-name="Path 407" d="M975,470.3h4.566v6.59H975Z" transform="translate(-975 -470.3)" fill="#fff"/>
    </clipPath>
  </defs>
  <g id="Group_1968" data-name="Group 1968" transform="translate(0 0)">
    <g id="Group_23" data-name="Group 23" transform="translate(0 5.634)" opacity="0.6">
      <g id="Group_22" data-name="Group 22" transform="translate(0 0)" clip-path="url(#clip-path)">
        <path id="Path_398" data-name="Path 398" d="M725.165,306.4l-4.565,2.128,4.565,2.764,4.563-2.764Z" transform="translate(-720.6 -306.4)" fill="#fff"/>
      </g>
    </g>
    <g id="Group_25" data-name="Group 25" transform="translate(0)" opacity="0.45">
      <g id="Group_24" data-name="Group 24" clip-path="url(#clip-path-2)">
        <path id="Path_400" data-name="Path 400" d="M720.6,7.762l4.565,2.764V0Z" transform="translate(-720.6)" fill="#fff"/>
      </g>
    </g>
    <g id="Group_27" data-name="Group 27" transform="translate(4.565)" opacity="0.8">
      <g id="Group_26" data-name="Group 26" transform="translate(0)" clip-path="url(#clip-path-3)">
        <path id="Path_402" data-name="Path 402" d="M975,0V10.526l4.563-2.764Z" transform="translate(-975)" fill="#fff"/>
      </g>
    </g>
    <g id="Group_29" data-name="Group 29" transform="translate(0 8.648)" opacity="0.45">
      <g id="Group_28" data-name="Group 28" transform="translate(0 0)" clip-path="url(#clip-path-4)">
        <path id="Path_404" data-name="Path 404" d="M720.6,470.3l4.565,6.59v-3.827Z" transform="translate(-720.6 -470.3)" fill="#fff"/>
      </g>
    </g>
    <g id="Group_31" data-name="Group 31" transform="translate(4.565 8.648)" opacity="0.8">
      <g id="Group_30" data-name="Group 30" transform="translate(0 0)" clip-path="url(#clip-path-5)">
        <path id="Path_406" data-name="Path 406" d="M975,473.064v3.827l4.566-6.59Z" transform="translate(-975 -470.3)" fill="#fff"/>
      </g>
    </g>
  </g>
</svg>
