<svg xmlns="http://www.w3.org/2000/svg" width="7.031" height="13.569" viewBox="0 0 7.031 13.569">
  <defs>
    <style>
      .cls-1 {
        fill: #fff;
      }
    </style>
  </defs>
  <g id="dollar-symbol" transform="translate(0)">
    <path id="Path_508" data-name="Path 508" class="cls-1" d="M122.054,6.163a16.335,16.335,0,0,0-1.659-.751,3.725,3.725,0,0,1-.911-.51.792.792,0,0,1,.2-1.41,1.6,1.6,0,0,1,.558-.115,4.233,4.233,0,0,1,2.1.415c.331.16.44.109.552-.235.118-.364.216-.734.325-1.1a.385.385,0,0,0-.249-.513,5.329,5.329,0,0,0-1.323-.4c-.6-.092-.6-.1-.6-.7,0-.849,0-.849-.855-.849-.123,0-.247,0-.37,0-.4.011-.465.081-.476.482-.006.179,0,.359,0,.541,0,.532-.006.524-.516.709a2.843,2.843,0,0,0-2.077,2.634,2.7,2.7,0,0,0,1.527,2.581,16.884,16.884,0,0,0,1.908.858,2.834,2.834,0,0,1,.695.409.953.953,0,0,1-.227,1.67,2.286,2.286,0,0,1-1.225.16,5.466,5.466,0,0,1-1.866-.558c-.345-.179-.446-.132-.563.241-.1.322-.191.647-.28.972-.12.437-.076.541.342.745a5.96,5.96,0,0,0,1.681.482c.454.073.468.092.474.563,0,.213,0,.429.006.642a.381.381,0,0,0,.409.432c.314.006.631.006.944,0a.359.359,0,0,0,.39-.406c0-.291.014-.586,0-.877a.463.463,0,0,1,.4-.527,3.167,3.167,0,0,0,1.651-1.059A2.978,2.978,0,0,0,122.054,6.163Z" transform="translate(-116.652 0)"/>
  </g>
</svg>
