<svg xmlns="http://www.w3.org/2000/svg" width="13.907" height="18.408" viewBox="0 0 13.907 18.408">
  <path id="symbol" d="M14.114,7.575c.289-1.934-1.183-2.974-3.2-3.668l.653-2.62L9.975.889,9.339,3.44c-.419-.1-.85-.2-1.278-.3L8.7.572,7.108.174,6.454,2.794c-.347-.079-.688-.157-1.018-.239l0-.008L3.238,2,2.814,3.7S4,3.972,3.972,3.988a.849.849,0,0,1,.743.928L3.971,7.9a1.321,1.321,0,0,1,.166.053l-.169-.042L2.925,12.094a.581.581,0,0,1-.731.379c.016.023-1.159-.289-1.159-.289L.243,14.009l2.076.517c.386.1.765.2,1.137.293L2.8,17.47l1.593.4.654-2.622c.435.118.858.227,1.271.33l-.651,2.61,1.595.4.66-2.645c2.72.515,4.765.307,5.626-2.153a2.8,2.8,0,0,0-1.465-3.868,2.544,2.544,0,0,0,2.036-2.342Zm-3.644,5.11c-.493,1.981-3.828.91-4.909.641l.876-3.511C7.518,10.085,10.985,10.619,10.47,12.685Zm.493-5.139c-.45,1.8-3.225.886-4.126.662l.794-3.184C8.532,5.248,11.432,5.667,10.963,7.546Z" transform="translate(-0.243 -0.174)" fill="#fff"/>
</svg>
