<svg xmlns="http://www.w3.org/2000/svg" width="26.478" height="26.834" viewBox="0 0 26.478 26.834">
  <defs>
    <style>
      .cls-1 {
        fill: #fff;
      }
    </style>
  </defs>
  <path id="Path_515" data-name="Path 515" class="cls-1" d="M20.94,16.131A.644.644,0,0,0,21,14.845H16.474V13.717a.747.747,0,0,0-1.437,0v1.128h-1.21a.643.643,0,1,0,0,1.286h1.211v3.925A3.75,3.75,0,0,0,18.78,23.78a3.669,3.669,0,0,0,2.262-.824l.271-.226a.756.756,0,1,0-.994-1.128l-.2.169a2.175,2.175,0,0,1-2.352.27,2.256,2.256,0,0,1-1.289-2.031v-3.88Zm7.35,4.378a.564.564,0,0,0-.442-.666h-.283a.553.553,0,0,0-.542.429,8.818,8.818,0,1,1-16.647-5.562,8.054,8.054,0,0,1,4.365-4.354,8.9,8.9,0,0,1,10.991,3.137.566.566,0,0,0,.769.157l.1-.068a.608.608,0,0,0,.193-.834,10.191,10.191,0,0,0-11.93-3.824,9.533,9.533,0,0,0-5.88,5.787,10.105,10.105,0,1,0,19.3,5.8ZM19,4.95H17.865a13.452,13.452,0,0,0-12.373,17.2.645.645,0,0,0,.8.429h.091a.642.642,0,0,0,.339-.756,12.2,12.2,0,1,1,9.047,8.461.611.611,0,0,0-.611.226.654.654,0,0,0,.373,1.049A13.439,13.439,0,1,0,19,4.95Z" transform="translate(-4.951 -4.95)"/>
</svg>
