<svg xmlns="http://www.w3.org/2000/svg" width="22.149" height="18" viewBox="0 0 22.149 18">
  <defs>
    <style>
      .cls-1 {
        fill: #fff;
      }
    </style>
  </defs>
  <g id="Group_2013" data-name="Group 2013" transform="translate(-25.103 -34.028)">
    <path id="Path_1641" data-name="Path 1641" class="cls-1" d="M47.252,36.159a9.066,9.066,0,0,1-2.61.715,4.556,4.556,0,0,0,2-2.513,9.1,9.1,0,0,1-2.886,1.1,4.548,4.548,0,0,0-7.743,4.145,12.9,12.9,0,0,1-9.366-4.748,4.549,4.549,0,0,0,1.406,6.067,4.512,4.512,0,0,1-2.058-.569c0,.019,0,.039,0,.058a4.547,4.547,0,0,0,3.645,4.455,4.562,4.562,0,0,1-2.052.079A4.549,4.549,0,0,0,31.83,48.1,9.173,9.173,0,0,1,25.1,49.986,12.923,12.923,0,0,0,45,39.1c0-.2,0-.393-.013-.588a9.215,9.215,0,0,0,2.268-2.352Z" transform="translate(0 0)"/>
  </g>
</svg>
