<svg xmlns="http://www.w3.org/2000/svg" width="40.87" height="32.863" viewBox="0 0 40.87 32.863">
  <defs>
    <style>
      .cls-1 {
        fill: #fff;
      }
    </style>
  </defs>
  <g id="Group_2014" data-name="Group 2014" transform="translate(4358.138 4353.339)">
    <path id="Path_1588" data-name="Path 1588" class="cls-1" d="M226.806,152.466l9.812,16.323-1.818-.011,2.1,3.513,6.376-.015-16.213-27.017c-.32.511-22.08,32.826-22.08,32.826l35.4.036-14.491-24.282C226.281,153.232,226.849,152.362,226.806,152.466Zm-14.481,21.555s6.98-10.354,11.238-16.728l9.985,16.64Z" transform="translate(-4560.54 -4498.598)"/>
    <path id="Path_1590" data-name="Path 1590" class="cls-1" d="M210.214,169.031l-21.124.047,11.178-16.62.875,1.456,2.26-3.359-2.931-5.039L182.145,172.6l30.169-.072Z" transform="translate(-4540.283 -4498.826)"/>
  </g>
</svg>
