<svg xmlns="http://www.w3.org/2000/svg" width="9.499" height="17.569" viewBox="0 0 9.499 17.569">
  <defs>
    <style>
      .cls-1 {
        fill: #fff;
      }
    </style>
  </defs>
  <g id="facebook-logo_1_" data-name="facebook-logo (1)" transform="translate(-22.077)">
    <path id="Path_1642" data-name="Path 1642" class="cls-1" d="M31.218,0,28.94,0a4,4,0,0,0-4.214,4.324V6.317H22.435a.358.358,0,0,0-.358.358V9.564a.358.358,0,0,0,.358.358h2.291v7.288a.358.358,0,0,0,.358.358h2.989a.358.358,0,0,0,.358-.358V9.922H31.11a.358.358,0,0,0,.358-.358V6.676a.359.359,0,0,0-.358-.358H28.431V4.627c0-.812.194-1.225,1.252-1.225h1.535a.358.358,0,0,0,.358-.358V.362A.358.358,0,0,0,31.218,0Z"/>
  </g>
</svg>
