<svg xmlns="http://www.w3.org/2000/svg" width="21.365" height="18" viewBox="0 0 21.365 18">
  <defs>
    <style>
      .cls-1 {
        fill: #fff;
      }
    </style>
  </defs>
  <path id="Path_1640" data-name="Path 1640" class="cls-1" d="M67.007,99.574l-19.541,7.615a.713.713,0,0,0,.057,1.347L52.489,110l1.853,5.88a.853.853,0,0,0,1.422.34l2.567-2.621,5.037,3.7a1.051,1.051,0,0,0,1.651-.632l3.336-15.95A1,1,0,0,0,67.007,99.574Zm-2.45,3.54-9.076,8.026a.488.488,0,0,0-.162.311l-.349,3.106a.094.094,0,0,1-.183.017l-1.438-4.633a.488.488,0,0,1,.209-.559l10.718-6.648A.237.237,0,0,1,64.557,103.114Z" transform="translate(-47.013 -99.504)"/>
</svg>
