<svg xmlns="http://www.w3.org/2000/svg" xmlns:xlink="http://www.w3.org/1999/xlink" width="36" height="36" viewBox="0 0 36 36">
  <defs>
    <style>
      .cls-1, .cls-3 {
        fill: #fff;
      }

      .cls-2 {
        fill: url(#linear-gradient);
      }

      .cls-3 {
        font-size: 6px;
        font-family: Poppins-Regular, Poppins;
      }

      .cls-4 {
        opacity: 0.6;
      }

      .cls-5 {
        clip-path: url(#clip-path);
      }

      .cls-6 {
        opacity: 0.45;
      }

      .cls-7 {
        clip-path: url(#clip-path-2);
      }

      .cls-8 {
        opacity: 0.8;
      }

      .cls-9 {
        clip-path: url(#clip-path-3);
      }

      .cls-10 {
        clip-path: url(#clip-path-4);
      }

      .cls-11 {
        clip-path: url(#clip-path-5);
      }
    </style>
    <linearGradient id="linear-gradient" x1="0.016" y1="0.016" x2="1" y2="1" gradientUnits="objectBoundingBox">
      <stop offset="0" stop-color="#6ee2f5"/>
      <stop offset="1" stop-color="#6454f0"/>
    </linearGradient>
    <clipPath id="clip-path">
      <path id="Path_399" data-name="Path 399" class="cls-1" d="M720.6,306.4h9.128v4.891H720.6Z" transform="translate(-720.6 -306.4)"/>
    </clipPath>
    <clipPath id="clip-path-2">
      <path id="Path_401" data-name="Path 401" class="cls-1" d="M720.6,0h4.565V10.526H720.6Z" transform="translate(-720.6)"/>
    </clipPath>
    <clipPath id="clip-path-3">
      <path id="Path_403" data-name="Path 403" class="cls-1" d="M975,0h4.565V10.526H975Z" transform="translate(-975)"/>
    </clipPath>
    <clipPath id="clip-path-4">
      <path id="Path_405" data-name="Path 405" class="cls-1" d="M720.6,470.3h4.565v6.59H720.6Z" transform="translate(-720.6 -470.3)"/>
    </clipPath>
    <clipPath id="clip-path-5">
      <path id="Path_407" data-name="Path 407" class="cls-1" d="M975,470.3h4.566v6.59H975Z" transform="translate(-975 -470.3)"/>
    </clipPath>
  </defs>
  <g id="Group_1972" data-name="Group 1972" transform="translate(-76.176 -213.007)">
    <rect id="Rectangle_2163" data-name="Rectangle 2163" class="cls-2" width="36" height="36" rx="8" transform="translate(76.176 213.007)"/>
    <text id="Token" class="cls-3" transform="translate(86 243)"><tspan x="0" y="0">Token</tspan></text>
    <g id="Group_1968" data-name="Group 1968" transform="translate(90.019 217.547)">
      <g id="Group_23" data-name="Group 23" class="cls-4" transform="translate(0 5.634)">
        <g id="Group_22" data-name="Group 22" class="cls-5" transform="translate(0 0)">
          <path id="Path_398" data-name="Path 398" class="cls-1" d="M725.165,306.4l-4.565,2.128,4.565,2.764,4.563-2.764Z" transform="translate(-720.6 -306.4)"/>
        </g>
      </g>
      <g id="Group_25" data-name="Group 25" class="cls-6" transform="translate(0)">
        <g id="Group_24" data-name="Group 24" class="cls-7">
          <path id="Path_400" data-name="Path 400" class="cls-1" d="M720.6,7.762l4.565,2.764V0Z" transform="translate(-720.6)"/>
        </g>
      </g>
      <g id="Group_27" data-name="Group 27" class="cls-8" transform="translate(4.565)">
        <g id="Group_26" data-name="Group 26" class="cls-9" transform="translate(0)">
          <path id="Path_402" data-name="Path 402" class="cls-1" d="M975,0V10.526l4.563-2.764Z" transform="translate(-975)"/>
        </g>
      </g>
      <g id="Group_29" data-name="Group 29" class="cls-6" transform="translate(0 8.648)">
        <g id="Group_28" data-name="Group 28" class="cls-10" transform="translate(0 0)">
          <path id="Path_404" data-name="Path 404" class="cls-1" d="M720.6,470.3l4.565,6.59v-3.827Z" transform="translate(-720.6 -470.3)"/>
        </g>
      </g>
      <g id="Group_31" data-name="Group 31" class="cls-8" transform="translate(4.565 8.648)">
        <g id="Group_30" data-name="Group 30" class="cls-11" transform="translate(0 0)">
          <path id="Path_406" data-name="Path 406" class="cls-1" d="M975,473.064v3.827l4.566-6.59Z" transform="translate(-975 -470.3)"/>
        </g>
      </g>
    </g>
  </g>
</svg>
