<svg id="atm" xmlns="http://www.w3.org/2000/svg" xmlns:xlink="http://www.w3.org/1999/xlink" width="21.105" height="21.105" viewBox="0 0 21.105 21.105">
  <defs>
    <style>
      .cls-1 {
        fill: url(#linear-gradient);
      }
    </style>
    <linearGradient id="linear-gradient" x1="0.5" x2="0.5" y2="1" gradientUnits="objectBoundingBox">
      <stop offset="0" stop-color="#f94f4f"/>
      <stop offset="1" stop-color="#8e3ddf"/>
    </linearGradient>
  </defs>
  <path id="Path_1555" data-name="Path 1555" class="cls-1" d="M196.054,177.295a2.693,2.693,0,1,1-2.693-2.693A2.693,2.693,0,0,1,196.054,177.295Zm0,0" transform="translate(-182.809 -167.405)"/>
  <path id="Path_1556" data-name="Path 1556" class="cls-1" d="M20.341.763A2.589,2.589,0,0,0,18.5,0H2.6A2.6,2.6,0,0,0,0,2.605V5.254A2.6,2.6,0,0,0,2.6,7.859h.132V3.311a.618.618,0,0,1,.618-.618H17.749a.618.618,0,0,1,.618.618V7.859H18.5a2.6,2.6,0,0,0,2.605-2.6V2.605A2.59,2.59,0,0,0,20.341.763Zm0,0" transform="translate(0.001 0)"/>
  <path id="Path_1557" data-name="Path 1557" class="cls-1" d="M96.4,110.564a1.943,1.943,0,0,0,1.943,1.943h9.272a1.943,1.943,0,0,0,1.943-1.943V95.332H96.4Zm6.579-13.2a3.93,3.93,0,1,1-3.93,3.93A3.934,3.934,0,0,1,102.977,97.363Zm-3.311,10.6h6.623a.618.618,0,1,1,0,1.237H99.666a.618.618,0,0,1,0-1.237Zm0,0" transform="translate(-92.425 -91.402)"/>
</svg>
